<?xml version="1.0" encoding="utf-8" standalone="no"?>
<!DOCTYPE svg PUBLIC "-//W3C//DTD SVG 1.1//EN"
  "http://www.w3.org/Graphics/SVG/1.1/DTD/svg11.dtd">
<svg height="184.455469pt" version="1.1" viewBox="0 0 238.965625 184.455469" width="238.965625pt" xmlns="http://www.w3.org/2000/svg" xmlns:xlink="http://www.w3.org/1999/xlink">
 <metadata>
  <rdf:RDF xmlns:cc="http://creativecommons.org/ns#" xmlns:dc="http://purl.org/dc/elements/1.1/" xmlns:rdf="http://www.w3.org/1999/02/22-rdf-syntax-ns#">
   <cc:Work>
    <dc:type rdf:resource="http://purl.org/dc/dcmitype/StillImage"/>
    <dc:date>2022-03-10T11:29:23.906676</dc:date>
    <dc:format>image/svg+xml</dc:format>
    <dc:creator>
     <cc:Agent>
      <dc:title>Matplotlib v3.4.0, https://matplotlib.org/</dc:title>
     </cc:Agent>
    </dc:creator>
   </cc:Work>
  </rdf:RDF>
 </metadata>
 <defs>
  <style type="text/css">*{stroke-linecap:butt;stroke-linejoin:round;}</style>
 </defs>
 <g id="figure_1">
  <g id="patch_1">
   <path d="M 0 184.455469 
L 238.965625 184.455469 
L 238.965625 -0 
L 0 -0 
z
" style="fill:none;"/>
  </g>
  <g id="axes_1">
   <g id="patch_2">
    <path d="M 30.103125 146.899219 
L 225.403125 146.899219 
L 225.403125 10.999219 
L 30.103125 10.999219 
z
" style="fill:#ffffff;"/>
   </g>
   <g id="matplotlib.axis_1">
    <g id="xtick_1">
     <g id="line2d_1">
      <path clip-path="url(#p69ccf502dc)" d="M 62.653125 146.899219 
L 62.653125 10.999219 
" style="fill:none;stroke:#b0b0b0;stroke-linecap:square;stroke-width:0.8;"/>
     </g>
     <g id="line2d_2">
      <defs>
       <path d="M 0 0 
L 0 3.5 
" id="mfb939f475e" style="stroke:#000000;stroke-width:0.8;"/>
      </defs>
      <g>
       <use style="stroke:#000000;stroke-width:0.8;" x="62.653125" xlink:href="#mfb939f475e" y="146.899219"/>
      </g>
     </g>
     <g id="text_1">
      <!-- 5 -->
      <g transform="translate(59.471875 161.497656)scale(0.1 -0.1)">
       <defs>
        <path d="M 691 4666 
L 3169 4666 
L 3169 4134 
L 1269 4134 
L 1269 2991 
Q 1406 3038 1543 3061 
Q 1681 3084 1819 3084 
Q 2600 3084 3056 2656 
Q 3513 2228 3513 1497 
Q 3513 744 3044 326 
Q 2575 -91 1722 -91 
Q 1428 -91 1123 -41 
Q 819 9 494 109 
L 494 744 
Q 775 591 1075 516 
Q 1375 441 1709 441 
Q 2250 441 2565 725 
Q 2881 1009 2881 1497 
Q 2881 1984 2565 2268 
Q 2250 2553 1709 2553 
Q 1456 2553 1204 2497 
Q 953 2441 691 2322 
L 691 4666 
z
" id="DejaVuSans-35" transform="scale(0.015625)"/>
       </defs>
       <use xlink:href="#DejaVuSans-35"/>
      </g>
     </g>
    </g>
    <g id="xtick_2">
     <g id="line2d_3">
      <path clip-path="url(#p69ccf502dc)" d="M 103.340625 146.899219 
L 103.340625 10.999219 
" style="fill:none;stroke:#b0b0b0;stroke-linecap:square;stroke-width:0.8;"/>
     </g>
     <g id="line2d_4">
      <g>
       <use style="stroke:#000000;stroke-width:0.8;" x="103.340625" xlink:href="#mfb939f475e" y="146.899219"/>
      </g>
     </g>
     <g id="text_2">
      <!-- 10 -->
      <g transform="translate(96.978125 161.497656)scale(0.1 -0.1)">
       <defs>
        <path d="M 794 531 
L 1825 531 
L 1825 4091 
L 703 3866 
L 703 4441 
L 1819 4666 
L 2450 4666 
L 2450 531 
L 3481 531 
L 3481 0 
L 794 0 
L 794 531 
z
" id="DejaVuSans-31" transform="scale(0.015625)"/>
        <path d="M 2034 4250 
Q 1547 4250 1301 3770 
Q 1056 3291 1056 2328 
Q 1056 1369 1301 889 
Q 1547 409 2034 409 
Q 2525 409 2770 889 
Q 3016 1369 3016 2328 
Q 3016 3291 2770 3770 
Q 2525 4250 2034 4250 
z
M 2034 4750 
Q 2819 4750 3233 4129 
Q 3647 3509 3647 2328 
Q 3647 1150 3233 529 
Q 2819 -91 2034 -91 
Q 1250 -91 836 529 
Q 422 1150 422 2328 
Q 422 3509 836 4129 
Q 1250 4750 2034 4750 
z
" id="DejaVuSans-30" transform="scale(0.015625)"/>
       </defs>
       <use xlink:href="#DejaVuSans-31"/>
       <use x="63.623047" xlink:href="#DejaVuSans-30"/>
      </g>
     </g>
    </g>
    <g id="xtick_3">
     <g id="line2d_5">
      <path clip-path="url(#p69ccf502dc)" d="M 144.028125 146.899219 
L 144.028125 10.999219 
" style="fill:none;stroke:#b0b0b0;stroke-linecap:square;stroke-width:0.8;"/>
     </g>
     <g id="line2d_6">
      <g>
       <use style="stroke:#000000;stroke-width:0.8;" x="144.028125" xlink:href="#mfb939f475e" y="146.899219"/>
      </g>
     </g>
     <g id="text_3">
      <!-- 15 -->
      <g transform="translate(137.665625 161.497656)scale(0.1 -0.1)">
       <use xlink:href="#DejaVuSans-31"/>
       <use x="63.623047" xlink:href="#DejaVuSans-35"/>
      </g>
     </g>
    </g>
    <g id="xtick_4">
     <g id="line2d_7">
      <path clip-path="url(#p69ccf502dc)" d="M 184.715625 146.899219 
L 184.715625 10.999219 
" style="fill:none;stroke:#b0b0b0;stroke-linecap:square;stroke-width:0.8;"/>
     </g>
     <g id="line2d_8">
      <g>
       <use style="stroke:#000000;stroke-width:0.8;" x="184.715625" xlink:href="#mfb939f475e" y="146.899219"/>
      </g>
     </g>
     <g id="text_4">
      <!-- 20 -->
      <g transform="translate(178.353125 161.497656)scale(0.1 -0.1)">
       <defs>
        <path d="M 1228 531 
L 3431 531 
L 3431 0 
L 469 0 
L 469 531 
Q 828 903 1448 1529 
Q 2069 2156 2228 2338 
Q 2531 2678 2651 2914 
Q 2772 3150 2772 3378 
Q 2772 3750 2511 3984 
Q 2250 4219 1831 4219 
Q 1534 4219 1204 4116 
Q 875 4013 500 3803 
L 500 4441 
Q 881 4594 1212 4672 
Q 1544 4750 1819 4750 
Q 2544 4750 2975 4387 
Q 3406 4025 3406 3419 
Q 3406 3131 3298 2873 
Q 3191 2616 2906 2266 
Q 2828 2175 2409 1742 
Q 1991 1309 1228 531 
z
" id="DejaVuSans-32" transform="scale(0.015625)"/>
       </defs>
       <use xlink:href="#DejaVuSans-32"/>
       <use x="63.623047" xlink:href="#DejaVuSans-30"/>
      </g>
     </g>
    </g>
    <g id="xtick_5">
     <g id="line2d_9">
      <path clip-path="url(#p69ccf502dc)" d="M 225.403125 146.899219 
L 225.403125 10.999219 
" style="fill:none;stroke:#b0b0b0;stroke-linecap:square;stroke-width:0.8;"/>
     </g>
     <g id="line2d_10">
      <g>
       <use style="stroke:#000000;stroke-width:0.8;" x="225.403125" xlink:href="#mfb939f475e" y="146.899219"/>
      </g>
     </g>
     <g id="text_5">
      <!-- 25 -->
      <g transform="translate(219.040625 161.497656)scale(0.1 -0.1)">
       <use xlink:href="#DejaVuSans-32"/>
       <use x="63.623047" xlink:href="#DejaVuSans-35"/>
      </g>
     </g>
    </g>
    <g id="text_6">
     <!-- epoch -->
     <g transform="translate(112.525 175.175781)scale(0.1 -0.1)">
      <defs>
       <path d="M 3597 1894 
L 3597 1613 
L 953 1613 
Q 991 1019 1311 708 
Q 1631 397 2203 397 
Q 2534 397 2845 478 
Q 3156 559 3463 722 
L 3463 178 
Q 3153 47 2828 -22 
Q 2503 -91 2169 -91 
Q 1331 -91 842 396 
Q 353 884 353 1716 
Q 353 2575 817 3079 
Q 1281 3584 2069 3584 
Q 2775 3584 3186 3129 
Q 3597 2675 3597 1894 
z
M 3022 2063 
Q 3016 2534 2758 2815 
Q 2500 3097 2075 3097 
Q 1594 3097 1305 2825 
Q 1016 2553 972 2059 
L 3022 2063 
z
" id="DejaVuSans-65" transform="scale(0.015625)"/>
       <path d="M 1159 525 
L 1159 -1331 
L 581 -1331 
L 581 3500 
L 1159 3500 
L 1159 2969 
Q 1341 3281 1617 3432 
Q 1894 3584 2278 3584 
Q 2916 3584 3314 3078 
Q 3713 2572 3713 1747 
Q 3713 922 3314 415 
Q 2916 -91 2278 -91 
Q 1894 -91 1617 61 
Q 1341 213 1159 525 
z
M 3116 1747 
Q 3116 2381 2855 2742 
Q 2594 3103 2138 3103 
Q 1681 3103 1420 2742 
Q 1159 2381 1159 1747 
Q 1159 1113 1420 752 
Q 1681 391 2138 391 
Q 2594 391 2855 752 
Q 3116 1113 3116 1747 
z
" id="DejaVuSans-70" transform="scale(0.015625)"/>
       <path d="M 1959 3097 
Q 1497 3097 1228 2736 
Q 959 2375 959 1747 
Q 959 1119 1226 758 
Q 1494 397 1959 397 
Q 2419 397 2687 759 
Q 2956 1122 2956 1747 
Q 2956 2369 2687 2733 
Q 2419 3097 1959 3097 
z
M 1959 3584 
Q 2709 3584 3137 3096 
Q 3566 2609 3566 1747 
Q 3566 888 3137 398 
Q 2709 -91 1959 -91 
Q 1206 -91 779 398 
Q 353 888 353 1747 
Q 353 2609 779 3096 
Q 1206 3584 1959 3584 
z
" id="DejaVuSans-6f" transform="scale(0.015625)"/>
       <path d="M 3122 3366 
L 3122 2828 
Q 2878 2963 2633 3030 
Q 2388 3097 2138 3097 
Q 1578 3097 1268 2742 
Q 959 2388 959 1747 
Q 959 1106 1268 751 
Q 1578 397 2138 397 
Q 2388 397 2633 464 
Q 2878 531 3122 666 
L 3122 134 
Q 2881 22 2623 -34 
Q 2366 -91 2075 -91 
Q 1284 -91 818 406 
Q 353 903 353 1747 
Q 353 2603 823 3093 
Q 1294 3584 2113 3584 
Q 2378 3584 2631 3529 
Q 2884 3475 3122 3366 
z
" id="DejaVuSans-63" transform="scale(0.015625)"/>
       <path d="M 3513 2113 
L 3513 0 
L 2938 0 
L 2938 2094 
Q 2938 2591 2744 2837 
Q 2550 3084 2163 3084 
Q 1697 3084 1428 2787 
Q 1159 2491 1159 1978 
L 1159 0 
L 581 0 
L 581 4863 
L 1159 4863 
L 1159 2956 
Q 1366 3272 1645 3428 
Q 1925 3584 2291 3584 
Q 2894 3584 3203 3211 
Q 3513 2838 3513 2113 
z
" id="DejaVuSans-68" transform="scale(0.015625)"/>
      </defs>
      <use xlink:href="#DejaVuSans-65"/>
      <use x="61.523438" xlink:href="#DejaVuSans-70"/>
      <use x="125" xlink:href="#DejaVuSans-6f"/>
      <use x="186.181641" xlink:href="#DejaVuSans-63"/>
      <use x="241.162109" xlink:href="#DejaVuSans-68"/>
     </g>
    </g>
   </g>
   <g id="matplotlib.axis_2">
    <g id="ytick_1">
     <g id="line2d_11">
      <path clip-path="url(#p69ccf502dc)" d="M 30.103125 146.899219 
L 225.403125 146.899219 
" style="fill:none;stroke:#b0b0b0;stroke-linecap:square;stroke-width:0.8;"/>
     </g>
     <g id="line2d_12">
      <defs>
       <path d="M 0 0 
L -3.5 0 
" id="m64262951c0" style="stroke:#000000;stroke-width:0.8;"/>
      </defs>
      <g>
       <use style="stroke:#000000;stroke-width:0.8;" x="30.103125" xlink:href="#m64262951c0" y="146.899219"/>
      </g>
     </g>
     <g id="text_7">
      <!-- 0.0 -->
      <g transform="translate(7.2 150.698437)scale(0.1 -0.1)">
       <defs>
        <path d="M 684 794 
L 1344 794 
L 1344 0 
L 684 0 
L 684 794 
z
" id="DejaVuSans-2e" transform="scale(0.015625)"/>
       </defs>
       <use xlink:href="#DejaVuSans-30"/>
       <use x="63.623047" xlink:href="#DejaVuSans-2e"/>
       <use x="95.410156" xlink:href="#DejaVuSans-30"/>
      </g>
     </g>
    </g>
    <g id="ytick_2">
     <g id="line2d_13">
      <path clip-path="url(#p69ccf502dc)" d="M 30.103125 119.719219 
L 225.403125 119.719219 
" style="fill:none;stroke:#b0b0b0;stroke-linecap:square;stroke-width:0.8;"/>
     </g>
     <g id="line2d_14">
      <g>
       <use style="stroke:#000000;stroke-width:0.8;" x="30.103125" xlink:href="#m64262951c0" y="119.719219"/>
      </g>
     </g>
     <g id="text_8">
      <!-- 0.2 -->
      <g transform="translate(7.2 123.518437)scale(0.1 -0.1)">
       <use xlink:href="#DejaVuSans-30"/>
       <use x="63.623047" xlink:href="#DejaVuSans-2e"/>
       <use x="95.410156" xlink:href="#DejaVuSans-32"/>
      </g>
     </g>
    </g>
    <g id="ytick_3">
     <g id="line2d_15">
      <path clip-path="url(#p69ccf502dc)" d="M 30.103125 92.539219 
L 225.403125 92.539219 
" style="fill:none;stroke:#b0b0b0;stroke-linecap:square;stroke-width:0.8;"/>
     </g>
     <g id="line2d_16">
      <g>
       <use style="stroke:#000000;stroke-width:0.8;" x="30.103125" xlink:href="#m64262951c0" y="92.539219"/>
      </g>
     </g>
     <g id="text_9">
      <!-- 0.4 -->
      <g transform="translate(7.2 96.338437)scale(0.1 -0.1)">
       <defs>
        <path d="M 2419 4116 
L 825 1625 
L 2419 1625 
L 2419 4116 
z
M 2253 4666 
L 3047 4666 
L 3047 1625 
L 3713 1625 
L 3713 1100 
L 3047 1100 
L 3047 0 
L 2419 0 
L 2419 1100 
L 313 1100 
L 313 1709 
L 2253 4666 
z
" id="DejaVuSans-34" transform="scale(0.015625)"/>
       </defs>
       <use xlink:href="#DejaVuSans-30"/>
       <use x="63.623047" xlink:href="#DejaVuSans-2e"/>
       <use x="95.410156" xlink:href="#DejaVuSans-34"/>
      </g>
     </g>
    </g>
    <g id="ytick_4">
     <g id="line2d_17">
      <path clip-path="url(#p69ccf502dc)" d="M 30.103125 65.359219 
L 225.403125 65.359219 
" style="fill:none;stroke:#b0b0b0;stroke-linecap:square;stroke-width:0.8;"/>
     </g>
     <g id="line2d_18">
      <g>
       <use style="stroke:#000000;stroke-width:0.8;" x="30.103125" xlink:href="#m64262951c0" y="65.359219"/>
      </g>
     </g>
     <g id="text_10">
      <!-- 0.6 -->
      <g transform="translate(7.2 69.158437)scale(0.1 -0.1)">
       <defs>
        <path d="M 2113 2584 
Q 1688 2584 1439 2293 
Q 1191 2003 1191 1497 
Q 1191 994 1439 701 
Q 1688 409 2113 409 
Q 2538 409 2786 701 
Q 3034 994 3034 1497 
Q 3034 2003 2786 2293 
Q 2538 2584 2113 2584 
z
M 3366 4563 
L 3366 3988 
Q 3128 4100 2886 4159 
Q 2644 4219 2406 4219 
Q 1781 4219 1451 3797 
Q 1122 3375 1075 2522 
Q 1259 2794 1537 2939 
Q 1816 3084 2150 3084 
Q 2853 3084 3261 2657 
Q 3669 2231 3669 1497 
Q 3669 778 3244 343 
Q 2819 -91 2113 -91 
Q 1303 -91 875 529 
Q 447 1150 447 2328 
Q 447 3434 972 4092 
Q 1497 4750 2381 4750 
Q 2619 4750 2861 4703 
Q 3103 4656 3366 4563 
z
" id="DejaVuSans-36" transform="scale(0.015625)"/>
       </defs>
       <use xlink:href="#DejaVuSans-30"/>
       <use x="63.623047" xlink:href="#DejaVuSans-2e"/>
       <use x="95.410156" xlink:href="#DejaVuSans-36"/>
      </g>
     </g>
    </g>
    <g id="ytick_5">
     <g id="line2d_19">
      <path clip-path="url(#p69ccf502dc)" d="M 30.103125 38.179219 
L 225.403125 38.179219 
" style="fill:none;stroke:#b0b0b0;stroke-linecap:square;stroke-width:0.8;"/>
     </g>
     <g id="line2d_20">
      <g>
       <use style="stroke:#000000;stroke-width:0.8;" x="30.103125" xlink:href="#m64262951c0" y="38.179219"/>
      </g>
     </g>
     <g id="text_11">
      <!-- 0.8 -->
      <g transform="translate(7.2 41.978437)scale(0.1 -0.1)">
       <defs>
        <path d="M 2034 2216 
Q 1584 2216 1326 1975 
Q 1069 1734 1069 1313 
Q 1069 891 1326 650 
Q 1584 409 2034 409 
Q 2484 409 2743 651 
Q 3003 894 3003 1313 
Q 3003 1734 2745 1975 
Q 2488 2216 2034 2216 
z
M 1403 2484 
Q 997 2584 770 2862 
Q 544 3141 544 3541 
Q 544 4100 942 4425 
Q 1341 4750 2034 4750 
Q 2731 4750 3128 4425 
Q 3525 4100 3525 3541 
Q 3525 3141 3298 2862 
Q 3072 2584 2669 2484 
Q 3125 2378 3379 2068 
Q 3634 1759 3634 1313 
Q 3634 634 3220 271 
Q 2806 -91 2034 -91 
Q 1263 -91 848 271 
Q 434 634 434 1313 
Q 434 1759 690 2068 
Q 947 2378 1403 2484 
z
M 1172 3481 
Q 1172 3119 1398 2916 
Q 1625 2713 2034 2713 
Q 2441 2713 2670 2916 
Q 2900 3119 2900 3481 
Q 2900 3844 2670 4047 
Q 2441 4250 2034 4250 
Q 1625 4250 1398 4047 
Q 1172 3844 1172 3481 
z
" id="DejaVuSans-38" transform="scale(0.015625)"/>
       </defs>
       <use xlink:href="#DejaVuSans-30"/>
       <use x="63.623047" xlink:href="#DejaVuSans-2e"/>
       <use x="95.410156" xlink:href="#DejaVuSans-38"/>
      </g>
     </g>
    </g>
    <g id="ytick_6">
     <g id="line2d_21">
      <path clip-path="url(#p69ccf502dc)" d="M 30.103125 10.999219 
L 225.403125 10.999219 
" style="fill:none;stroke:#b0b0b0;stroke-linecap:square;stroke-width:0.8;"/>
     </g>
     <g id="line2d_22">
      <g>
       <use style="stroke:#000000;stroke-width:0.8;" x="30.103125" xlink:href="#m64262951c0" y="10.999219"/>
      </g>
     </g>
     <g id="text_12">
      <!-- 1.0 -->
      <g transform="translate(7.2 14.798437)scale(0.1 -0.1)">
       <use xlink:href="#DejaVuSans-31"/>
       <use x="63.623047" xlink:href="#DejaVuSans-2e"/>
       <use x="95.410156" xlink:href="#DejaVuSans-30"/>
      </g>
     </g>
    </g>
   </g>
   <g id="line2d_23">
    <path clip-path="url(#p69ccf502dc)" d="M 23.566445 27.194071 
L 25.167264 37.306126 
L 26.768084 42.908875 
L 28.368904 47.46518 
L 29.969723 47.910545 
L 30.103125 47.681411 
L 31.703945 39.437269 
L 33.304764 46.994936 
L 34.905584 52.126778 
L 36.506404 56.295423 
L 38.107223 55.40277 
L 38.240625 54.892124 
L 39.841445 82.11922 
L 41.442264 64.833259 
L 43.043084 67.75744 
L 44.643904 68.111938 
L 46.244723 65.824287 
L 46.378125 66.321639 
L 47.978945 87.071892 
L 49.579764 87.043646 
L 51.180584 73.811925 
L 52.781404 74.756622 
L 54.382223 73.771645 
L 54.515625 74.595044 
L 56.116445 62.027737 
L 57.717264 67.332918 
L 59.318084 67.532543 
L 60.918904 67.23366 
L 62.519723 68.117098 
L 62.653125 66.94206 
L 64.253945 87.155016 
L 67.455584 63.842469 
L 69.056404 62.76176 
L 70.657223 59.495568 
L 70.790625 59.932845 
L 72.391445 64.463013 
L 73.992264 66.228854 
L 75.593084 67.500794 
L 77.193904 66.502606 
L 78.794723 66.743388 
L 78.928125 67.238245 
L 80.528945 80.739851 
L 82.129764 73.667503 
L 83.730584 71.395746 
L 85.331404 70.860413 
L 86.932223 75.770571 
L 87.065625 74.941452 
L 88.666445 94.090707 
L 90.267264 76.817952 
L 91.868084 74.283801 
L 93.468904 66.81045 
L 95.203125 73.234565 
L 96.803945 66.32895 
L 98.404764 68.43762 
L 100.005584 73.862292 
L 101.606404 67.177983 
L 103.207223 68.934414 
L 103.340625 69.791036 
L 104.941445 37.173044 
L 106.542264 34.90308 
L 108.143084 49.619408 
L 109.743904 53.67153 
L 111.344723 56.817121 
L 111.478125 56.130915 
L 113.078945 60.416101 
L 114.679764 68.310392 
L 116.280584 69.292151 
L 117.881404 70.097253 
L 119.615625 66.244585 
L 121.216445 72.791426 
L 122.817264 59.335543 
L 124.418084 57.85342 
L 126.018904 57.216756 
L 127.619723 59.674544 
L 127.753125 60.200203 
L 129.353945 71.673539 
L 130.954764 70.468334 
L 132.555584 65.646277 
L 134.156404 70.715795 
L 135.757223 66.202954 
L 135.890625 66.308229 
L 137.491445 61.604055 
L 139.092264 71.592725 
L 140.693084 60.25435 
L 142.293904 55.186103 
L 144.028125 61.004088 
L 145.628945 112.150709 
L 147.229764 93.439798 
L 148.830584 87.577434 
L 150.431404 76.945844 
L 152.032223 76.827755 
L 152.165625 76.010738 
L 153.766445 71.607208 
L 155.367264 76.219625 
L 156.968084 72.659617 
L 158.568904 69.875014 
L 160.303125 71.986787 
L 161.903945 68.657917 
L 163.504764 67.845235 
L 165.105584 69.086138 
L 166.706404 71.40217 
L 168.307223 70.501691 
L 168.440625 70.95484 
L 170.041445 67.139365 
L 171.642264 51.866741 
L 173.243084 56.832314 
L 174.843904 57.882126 
L 176.444723 62.371896 
L 176.578125 63.110137 
L 178.178945 87.550027 
L 179.779764 78.617524 
L 181.380584 66.198064 
L 182.981404 63.432106 
L 184.715625 69.027959 
L 186.316445 52.874016 
L 187.917264 63.320383 
L 189.518084 67.393997 
L 191.118904 64.369846 
L 192.719723 60.885149 
L 192.853125 61.334112 
L 194.453945 46.435998 
L 196.054764 51.111696 
L 197.655584 53.542114 
L 199.256404 58.984412 
L 200.857223 59.640675 
L 200.990625 60.216368 
L 202.591445 84.985302 
L 204.192264 83.198808 
L 205.793084 81.022542 
L 207.393904 80.100534 
L 208.994723 80.892806 
L 209.128125 79.7617 
L 210.728945 58.38357 
L 212.329764 71.013855 
L 213.930584 69.049246 
L 215.531404 64.176159 
L 217.132223 68.192985 
L 217.265625 66.914447 
L 218.866445 75.935039 
L 220.467264 76.613835 
L 222.068084 79.485138 
L 223.668904 79.409105 
L 225.269723 78.537937 
L 225.403125 77.262367 
L 225.403125 77.262367 
" style="fill:none;stroke:#1f77b4;stroke-linecap:square;stroke-width:1.5;"/>
   </g>
   <g id="line2d_24">
    <path clip-path="url(#p69ccf502dc)" d="M 23.566445 101.599219 
L 25.167264 88.858594 
L 26.768084 81.780469 
L 28.368904 76.117969 
L 29.969723 73.852969 
L 30.103125 74.493481 
L 31.703945 73.286719 
L 33.304764 67.624219 
L 36.506404 61.961719 
L 38.107223 62.527969 
L 38.240625 63.354137 
L 39.841445 39.311719 
L 41.442264 49.221094 
L 43.043084 52.524219 
L 44.643904 54.175781 
L 46.244723 56.299219 
L 46.378125 56.113563 
L 47.978945 36.480469 
L 49.579764 39.311719 
L 51.180584 46.861719 
L 52.781404 47.097656 
L 54.382223 48.937969 
L 54.515625 48.316022 
L 56.116445 44.974219 
L 57.717264 46.389844 
L 59.318084 48.749219 
L 60.918904 49.221094 
L 62.519723 47.239219 
L 62.653125 48.316022 
L 64.253945 33.649219 
L 65.854764 44.974219 
L 67.455584 50.636719 
L 69.056404 52.760156 
L 70.657223 56.299219 
L 70.790625 56.113563 
L 72.391445 47.805469 
L 73.992264 46.389844 
L 75.593084 49.692969 
L 77.193904 47.805469 
L 78.794723 48.937969 
L 78.928125 48.872989 
L 80.528945 47.805469 
L 82.129764 52.052344 
L 83.730584 51.580469 
L 85.331404 49.221094 
L 86.932223 44.974219 
L 87.065625 45.531186 
L 88.666445 42.142969 
L 90.267264 49.221094 
L 91.868084 48.749219 
L 93.468904 52.760156 
L 95.203125 48.316022 
L 96.803945 50.636719 
L 98.404764 47.805469 
L 100.005584 44.030469 
L 101.606404 50.636719 
L 103.207223 50.070469 
L 103.340625 49.429956 
L 104.941445 64.792969 
L 106.542264 67.624219 
L 108.143084 58.186719 
L 109.743904 57.714844 
L 111.344723 56.299219 
L 111.478125 57.227497 
L 113.078945 50.636719 
L 114.679764 49.221094 
L 116.280584 49.692969 
L 117.881404 50.636719 
L 119.482223 54.600469 
L 119.615625 54.442661 
L 121.216445 47.805469 
L 122.817264 56.299219 
L 124.418084 56.299219 
L 126.018904 54.883594 
L 129.353945 50.636719 
L 130.954764 50.636719 
L 132.555584 52.524219 
L 134.156404 51.344531 
L 135.757223 51.769219 
L 135.890625 51.657825 
L 137.491445 44.974219 
L 139.092264 43.558594 
L 140.693084 48.749219 
L 142.293904 52.760156 
L 144.028125 51.100858 
L 145.628945 22.324219 
L 147.229764 35.064844 
L 148.830584 38.367969 
L 150.431404 42.850781 
L 152.165625 43.860284 
L 153.766445 50.636719 
L 155.367264 42.142969 
L 156.968084 46.861719 
L 158.568904 49.928906 
L 160.303125 47.759055 
L 161.903945 50.636719 
L 163.504764 52.052344 
L 165.105584 52.524219 
L 166.706404 50.636719 
L 168.307223 51.202969 
L 168.440625 51.100858 
L 170.041445 53.467969 
L 171.642264 60.546094 
L 173.243084 57.242969 
L 174.843904 57.714844 
L 176.578125 54.999629 
L 178.178945 42.142969 
L 181.380584 53.467969 
L 182.981404 52.052344 
L 184.715625 48.872989 
L 186.316445 53.467969 
L 187.917264 53.467969 
L 189.518084 51.580469 
L 191.118904 54.175781 
L 192.719723 55.166719 
L 192.853125 54.999629 
L 194.453945 73.286719 
L 196.054764 67.624219 
L 197.655584 63.849219 
L 199.256404 58.422656 
L 200.857223 57.431719 
L 200.990625 56.67053 
L 202.591445 50.636719 
L 204.192264 52.052344 
L 205.793084 51.580469 
L 207.393904 50.636719 
L 208.994723 47.805469 
L 209.128125 48.316022 
L 210.728945 59.130469 
L 212.329764 52.052344 
L 213.930584 54.411719 
L 215.531404 58.422656 
L 217.265625 54.999629 
L 218.866445 44.974219 
L 220.467264 46.389844 
L 222.068084 46.861719 
L 223.668904 45.682031 
L 225.269723 46.672969 
L 225.403125 47.202088 
L 225.403125 47.202088 
" style="fill:none;stroke:#bf00bf;stroke-dasharray:5.55,2.4;stroke-dashoffset:0;stroke-width:1.5;"/>
   </g>
   <g id="line2d_25">
    <path clip-path="url(#p69ccf502dc)" d="M 30.103125 39.422748 
L 38.240625 31.428631 
L 46.378125 36.758042 
L 54.515625 21.658042 
L 62.653125 21.658042 
L 70.790625 23.434513 
L 78.928125 19.881572 
L 87.065625 19.881572 
L 95.203125 26.099219 
L 103.340625 20.769807 
L 111.478125 19.881572 
L 119.615625 19.881572 
L 127.753125 19.881572 
L 135.890625 20.769807 
L 144.028125 25.210983 
L 152.165625 18.993336 
L 160.303125 23.434513 
L 168.440625 20.769807 
L 176.578125 22.546278 
L 184.715625 25.210983 
L 192.853125 20.769807 
L 200.990625 32.316866 
L 209.128125 19.881572 
L 217.265625 21.658042 
L 225.403125 22.546278 
" style="fill:none;stroke:#008000;stroke-dasharray:9.6,2.4,1.5,2.4;stroke-dashoffset:0;stroke-width:1.5;"/>
   </g>
   <g id="patch_3">
    <path d="M 30.103125 146.899219 
L 30.103125 10.999219 
" style="fill:none;stroke:#000000;stroke-linecap:square;stroke-linejoin:miter;stroke-width:0.8;"/>
   </g>
   <g id="patch_4">
    <path d="M 225.403125 146.899219 
L 225.403125 10.999219 
" style="fill:none;stroke:#000000;stroke-linecap:square;stroke-linejoin:miter;stroke-width:0.8;"/>
   </g>
   <g id="patch_5">
    <path d="M 30.103125 146.899219 
L 225.403125 146.899219 
" style="fill:none;stroke:#000000;stroke-linecap:square;stroke-linejoin:miter;stroke-width:0.8;"/>
   </g>
   <g id="patch_6">
    <path d="M 30.103125 10.999219 
L 225.403125 10.999219 
" style="fill:none;stroke:#000000;stroke-linecap:square;stroke-linejoin:miter;stroke-width:0.8;"/>
   </g>
   <g id="legend_1">
    <g id="patch_7">
     <path d="M 37.103125 141.899219 
L 114.871875 141.899219 
Q 116.871875 141.899219 116.871875 139.899219 
L 116.871875 96.864844 
Q 116.871875 94.864844 114.871875 94.864844 
L 37.103125 94.864844 
Q 35.103125 94.864844 35.103125 96.864844 
L 35.103125 139.899219 
Q 35.103125 141.899219 37.103125 141.899219 
z
" style="fill:#ffffff;opacity:0.8;stroke:#cccccc;stroke-linejoin:miter;"/>
    </g>
    <g id="line2d_26">
     <path d="M 39.103125 102.963281 
L 59.103125 102.963281 
" style="fill:none;stroke:#1f77b4;stroke-linecap:square;stroke-width:1.5;"/>
    </g>
    <g id="line2d_27"/>
    <g id="text_13">
     <!-- train loss -->
     <g transform="translate(67.103125 106.463281)scale(0.1 -0.1)">
      <defs>
       <path d="M 1172 4494 
L 1172 3500 
L 2356 3500 
L 2356 3053 
L 1172 3053 
L 1172 1153 
Q 1172 725 1289 603 
Q 1406 481 1766 481 
L 2356 481 
L 2356 0 
L 1766 0 
Q 1100 0 847 248 
Q 594 497 594 1153 
L 594 3053 
L 172 3053 
L 172 3500 
L 594 3500 
L 594 4494 
L 1172 4494 
z
" id="DejaVuSans-74" transform="scale(0.015625)"/>
       <path d="M 2631 2963 
Q 2534 3019 2420 3045 
Q 2306 3072 2169 3072 
Q 1681 3072 1420 2755 
Q 1159 2438 1159 1844 
L 1159 0 
L 581 0 
L 581 3500 
L 1159 3500 
L 1159 2956 
Q 1341 3275 1631 3429 
Q 1922 3584 2338 3584 
Q 2397 3584 2469 3576 
Q 2541 3569 2628 3553 
L 2631 2963 
z
" id="DejaVuSans-72" transform="scale(0.015625)"/>
       <path d="M 2194 1759 
Q 1497 1759 1228 1600 
Q 959 1441 959 1056 
Q 959 750 1161 570 
Q 1363 391 1709 391 
Q 2188 391 2477 730 
Q 2766 1069 2766 1631 
L 2766 1759 
L 2194 1759 
z
M 3341 1997 
L 3341 0 
L 2766 0 
L 2766 531 
Q 2569 213 2275 61 
Q 1981 -91 1556 -91 
Q 1019 -91 701 211 
Q 384 513 384 1019 
Q 384 1609 779 1909 
Q 1175 2209 1959 2209 
L 2766 2209 
L 2766 2266 
Q 2766 2663 2505 2880 
Q 2244 3097 1772 3097 
Q 1472 3097 1187 3025 
Q 903 2953 641 2809 
L 641 3341 
Q 956 3463 1253 3523 
Q 1550 3584 1831 3584 
Q 2591 3584 2966 3190 
Q 3341 2797 3341 1997 
z
" id="DejaVuSans-61" transform="scale(0.015625)"/>
       <path d="M 603 3500 
L 1178 3500 
L 1178 0 
L 603 0 
L 603 3500 
z
M 603 4863 
L 1178 4863 
L 1178 4134 
L 603 4134 
L 603 4863 
z
" id="DejaVuSans-69" transform="scale(0.015625)"/>
       <path d="M 3513 2113 
L 3513 0 
L 2938 0 
L 2938 2094 
Q 2938 2591 2744 2837 
Q 2550 3084 2163 3084 
Q 1697 3084 1428 2787 
Q 1159 2491 1159 1978 
L 1159 0 
L 581 0 
L 581 3500 
L 1159 3500 
L 1159 2956 
Q 1366 3272 1645 3428 
Q 1925 3584 2291 3584 
Q 2894 3584 3203 3211 
Q 3513 2838 3513 2113 
z
" id="DejaVuSans-6e" transform="scale(0.015625)"/>
       <path id="DejaVuSans-20" transform="scale(0.015625)"/>
       <path d="M 603 4863 
L 1178 4863 
L 1178 0 
L 603 0 
L 603 4863 
z
" id="DejaVuSans-6c" transform="scale(0.015625)"/>
       <path d="M 2834 3397 
L 2834 2853 
Q 2591 2978 2328 3040 
Q 2066 3103 1784 3103 
Q 1356 3103 1142 2972 
Q 928 2841 928 2578 
Q 928 2378 1081 2264 
Q 1234 2150 1697 2047 
L 1894 2003 
Q 2506 1872 2764 1633 
Q 3022 1394 3022 966 
Q 3022 478 2636 193 
Q 2250 -91 1575 -91 
Q 1294 -91 989 -36 
Q 684 19 347 128 
L 347 722 
Q 666 556 975 473 
Q 1284 391 1588 391 
Q 1994 391 2212 530 
Q 2431 669 2431 922 
Q 2431 1156 2273 1281 
Q 2116 1406 1581 1522 
L 1381 1569 
Q 847 1681 609 1914 
Q 372 2147 372 2553 
Q 372 3047 722 3315 
Q 1072 3584 1716 3584 
Q 2034 3584 2315 3537 
Q 2597 3491 2834 3397 
z
" id="DejaVuSans-73" transform="scale(0.015625)"/>
      </defs>
      <use xlink:href="#DejaVuSans-74"/>
      <use x="39.208984" xlink:href="#DejaVuSans-72"/>
      <use x="80.322266" xlink:href="#DejaVuSans-61"/>
      <use x="141.601562" xlink:href="#DejaVuSans-69"/>
      <use x="169.384766" xlink:href="#DejaVuSans-6e"/>
      <use x="232.763672" xlink:href="#DejaVuSans-20"/>
      <use x="264.550781" xlink:href="#DejaVuSans-6c"/>
      <use x="292.333984" xlink:href="#DejaVuSans-6f"/>
      <use x="353.515625" xlink:href="#DejaVuSans-73"/>
      <use x="405.615234" xlink:href="#DejaVuSans-73"/>
     </g>
    </g>
    <g id="line2d_28">
     <path d="M 39.103125 117.641406 
L 59.103125 117.641406 
" style="fill:none;stroke:#bf00bf;stroke-dasharray:5.55,2.4;stroke-dashoffset:0;stroke-width:1.5;"/>
    </g>
    <g id="line2d_29"/>
    <g id="text_14">
     <!-- train acc -->
     <g transform="translate(67.103125 121.141406)scale(0.1 -0.1)">
      <use xlink:href="#DejaVuSans-74"/>
      <use x="39.208984" xlink:href="#DejaVuSans-72"/>
      <use x="80.322266" xlink:href="#DejaVuSans-61"/>
      <use x="141.601562" xlink:href="#DejaVuSans-69"/>
      <use x="169.384766" xlink:href="#DejaVuSans-6e"/>
      <use x="232.763672" xlink:href="#DejaVuSans-20"/>
      <use x="264.550781" xlink:href="#DejaVuSans-61"/>
      <use x="325.830078" xlink:href="#DejaVuSans-63"/>
      <use x="380.810547" xlink:href="#DejaVuSans-63"/>
     </g>
    </g>
    <g id="line2d_30">
     <path d="M 39.103125 132.319531 
L 59.103125 132.319531 
" style="fill:none;stroke:#008000;stroke-dasharray:9.6,2.4,1.5,2.4;stroke-dashoffset:0;stroke-width:1.5;"/>
    </g>
    <g id="line2d_31"/>
    <g id="text_15">
     <!-- test acc -->
     <g transform="translate(67.103125 135.819531)scale(0.1 -0.1)">
      <use xlink:href="#DejaVuSans-74"/>
      <use x="39.208984" xlink:href="#DejaVuSans-65"/>
      <use x="100.732422" xlink:href="#DejaVuSans-73"/>
      <use x="152.832031" xlink:href="#DejaVuSans-74"/>
      <use x="192.041016" xlink:href="#DejaVuSans-20"/>
      <use x="223.828125" xlink:href="#DejaVuSans-61"/>
      <use x="285.107422" xlink:href="#DejaVuSans-63"/>
      <use x="340.087891" xlink:href="#DejaVuSans-63"/>
     </g>
    </g>
   </g>
  </g>
 </g>
 <defs>
  <clipPath id="p69ccf502dc">
   <rect height="135.9" width="195.3" x="30.103125" y="10.999219"/>
  </clipPath>
 </defs>
</svg>
