<?xml version="1.0" encoding="utf-8" standalone="no"?>
<!DOCTYPE svg PUBLIC "-//W3C//DTD SVG 1.1//EN"
  "http://www.w3.org/Graphics/SVG/1.1/DTD/svg11.dtd">
<svg height="184.455469pt" version="1.1" viewBox="0 0 238.965625 184.455469" width="238.965625pt" xmlns="http://www.w3.org/2000/svg" xmlns:xlink="http://www.w3.org/1999/xlink">
 <metadata>
  <rdf:RDF xmlns:cc="http://creativecommons.org/ns#" xmlns:dc="http://purl.org/dc/elements/1.1/" xmlns:rdf="http://www.w3.org/1999/02/22-rdf-syntax-ns#">
   <cc:Work>
    <dc:type rdf:resource="http://purl.org/dc/dcmitype/StillImage"/>
    <dc:date>2022-03-17T18:08:04.774632</dc:date>
    <dc:format>image/svg+xml</dc:format>
    <dc:creator>
     <cc:Agent>
      <dc:title>Matplotlib v3.4.0, https://matplotlib.org/</dc:title>
     </cc:Agent>
    </dc:creator>
   </cc:Work>
  </rdf:RDF>
 </metadata>
 <defs>
  <style type="text/css">*{stroke-linecap:butt;stroke-linejoin:round;}</style>
 </defs>
 <g id="figure_1">
  <g id="patch_1">
   <path d="M 0 184.455469 
L 238.965625 184.455469 
L 238.965625 -0 
L 0 -0 
z
" style="fill:none;"/>
  </g>
  <g id="axes_1">
   <g id="patch_2">
    <path d="M 30.103125 146.899219 
L 225.403125 146.899219 
L 225.403125 10.999219 
L 30.103125 10.999219 
z
" style="fill:#ffffff;"/>
   </g>
   <g id="matplotlib.axis_1">
    <g id="xtick_1">
     <g id="line2d_1">
      <path clip-path="url(#p7c078a9207)" d="M 62.653125 146.899219 
L 62.653125 10.999219 
" style="fill:none;stroke:#b0b0b0;stroke-linecap:square;stroke-width:0.8;"/>
     </g>
     <g id="line2d_2">
      <defs>
       <path d="M 0 0 
L 0 3.5 
" id="m5d6e8f2003" style="stroke:#000000;stroke-width:0.8;"/>
      </defs>
      <g>
       <use style="stroke:#000000;stroke-width:0.8;" x="62.653125" xlink:href="#m5d6e8f2003" y="146.899219"/>
      </g>
     </g>
     <g id="text_1">
      <!-- 5 -->
      <g transform="translate(59.471875 161.497656)scale(0.1 -0.1)">
       <defs>
        <path d="M 691 4666 
L 3169 4666 
L 3169 4134 
L 1269 4134 
L 1269 2991 
Q 1406 3038 1543 3061 
Q 1681 3084 1819 3084 
Q 2600 3084 3056 2656 
Q 3513 2228 3513 1497 
Q 3513 744 3044 326 
Q 2575 -91 1722 -91 
Q 1428 -91 1123 -41 
Q 819 9 494 109 
L 494 744 
Q 775 591 1075 516 
Q 1375 441 1709 441 
Q 2250 441 2565 725 
Q 2881 1009 2881 1497 
Q 2881 1984 2565 2268 
Q 2250 2553 1709 2553 
Q 1456 2553 1204 2497 
Q 953 2441 691 2322 
L 691 4666 
z
" id="DejaVuSans-35" transform="scale(0.015625)"/>
       </defs>
       <use xlink:href="#DejaVuSans-35"/>
      </g>
     </g>
    </g>
    <g id="xtick_2">
     <g id="line2d_3">
      <path clip-path="url(#p7c078a9207)" d="M 103.340625 146.899219 
L 103.340625 10.999219 
" style="fill:none;stroke:#b0b0b0;stroke-linecap:square;stroke-width:0.8;"/>
     </g>
     <g id="line2d_4">
      <g>
       <use style="stroke:#000000;stroke-width:0.8;" x="103.340625" xlink:href="#m5d6e8f2003" y="146.899219"/>
      </g>
     </g>
     <g id="text_2">
      <!-- 10 -->
      <g transform="translate(96.978125 161.497656)scale(0.1 -0.1)">
       <defs>
        <path d="M 794 531 
L 1825 531 
L 1825 4091 
L 703 3866 
L 703 4441 
L 1819 4666 
L 2450 4666 
L 2450 531 
L 3481 531 
L 3481 0 
L 794 0 
L 794 531 
z
" id="DejaVuSans-31" transform="scale(0.015625)"/>
        <path d="M 2034 4250 
Q 1547 4250 1301 3770 
Q 1056 3291 1056 2328 
Q 1056 1369 1301 889 
Q 1547 409 2034 409 
Q 2525 409 2770 889 
Q 3016 1369 3016 2328 
Q 3016 3291 2770 3770 
Q 2525 4250 2034 4250 
z
M 2034 4750 
Q 2819 4750 3233 4129 
Q 3647 3509 3647 2328 
Q 3647 1150 3233 529 
Q 2819 -91 2034 -91 
Q 1250 -91 836 529 
Q 422 1150 422 2328 
Q 422 3509 836 4129 
Q 1250 4750 2034 4750 
z
" id="DejaVuSans-30" transform="scale(0.015625)"/>
       </defs>
       <use xlink:href="#DejaVuSans-31"/>
       <use x="63.623047" xlink:href="#DejaVuSans-30"/>
      </g>
     </g>
    </g>
    <g id="xtick_3">
     <g id="line2d_5">
      <path clip-path="url(#p7c078a9207)" d="M 144.028125 146.899219 
L 144.028125 10.999219 
" style="fill:none;stroke:#b0b0b0;stroke-linecap:square;stroke-width:0.8;"/>
     </g>
     <g id="line2d_6">
      <g>
       <use style="stroke:#000000;stroke-width:0.8;" x="144.028125" xlink:href="#m5d6e8f2003" y="146.899219"/>
      </g>
     </g>
     <g id="text_3">
      <!-- 15 -->
      <g transform="translate(137.665625 161.497656)scale(0.1 -0.1)">
       <use xlink:href="#DejaVuSans-31"/>
       <use x="63.623047" xlink:href="#DejaVuSans-35"/>
      </g>
     </g>
    </g>
    <g id="xtick_4">
     <g id="line2d_7">
      <path clip-path="url(#p7c078a9207)" d="M 184.715625 146.899219 
L 184.715625 10.999219 
" style="fill:none;stroke:#b0b0b0;stroke-linecap:square;stroke-width:0.8;"/>
     </g>
     <g id="line2d_8">
      <g>
       <use style="stroke:#000000;stroke-width:0.8;" x="184.715625" xlink:href="#m5d6e8f2003" y="146.899219"/>
      </g>
     </g>
     <g id="text_4">
      <!-- 20 -->
      <g transform="translate(178.353125 161.497656)scale(0.1 -0.1)">
       <defs>
        <path d="M 1228 531 
L 3431 531 
L 3431 0 
L 469 0 
L 469 531 
Q 828 903 1448 1529 
Q 2069 2156 2228 2338 
Q 2531 2678 2651 2914 
Q 2772 3150 2772 3378 
Q 2772 3750 2511 3984 
Q 2250 4219 1831 4219 
Q 1534 4219 1204 4116 
Q 875 4013 500 3803 
L 500 4441 
Q 881 4594 1212 4672 
Q 1544 4750 1819 4750 
Q 2544 4750 2975 4387 
Q 3406 4025 3406 3419 
Q 3406 3131 3298 2873 
Q 3191 2616 2906 2266 
Q 2828 2175 2409 1742 
Q 1991 1309 1228 531 
z
" id="DejaVuSans-32" transform="scale(0.015625)"/>
       </defs>
       <use xlink:href="#DejaVuSans-32"/>
       <use x="63.623047" xlink:href="#DejaVuSans-30"/>
      </g>
     </g>
    </g>
    <g id="xtick_5">
     <g id="line2d_9">
      <path clip-path="url(#p7c078a9207)" d="M 225.403125 146.899219 
L 225.403125 10.999219 
" style="fill:none;stroke:#b0b0b0;stroke-linecap:square;stroke-width:0.8;"/>
     </g>
     <g id="line2d_10">
      <g>
       <use style="stroke:#000000;stroke-width:0.8;" x="225.403125" xlink:href="#m5d6e8f2003" y="146.899219"/>
      </g>
     </g>
     <g id="text_5">
      <!-- 25 -->
      <g transform="translate(219.040625 161.497656)scale(0.1 -0.1)">
       <use xlink:href="#DejaVuSans-32"/>
       <use x="63.623047" xlink:href="#DejaVuSans-35"/>
      </g>
     </g>
    </g>
    <g id="text_6">
     <!-- epoch -->
     <g transform="translate(112.525 175.175781)scale(0.1 -0.1)">
      <defs>
       <path d="M 3597 1894 
L 3597 1613 
L 953 1613 
Q 991 1019 1311 708 
Q 1631 397 2203 397 
Q 2534 397 2845 478 
Q 3156 559 3463 722 
L 3463 178 
Q 3153 47 2828 -22 
Q 2503 -91 2169 -91 
Q 1331 -91 842 396 
Q 353 884 353 1716 
Q 353 2575 817 3079 
Q 1281 3584 2069 3584 
Q 2775 3584 3186 3129 
Q 3597 2675 3597 1894 
z
M 3022 2063 
Q 3016 2534 2758 2815 
Q 2500 3097 2075 3097 
Q 1594 3097 1305 2825 
Q 1016 2553 972 2059 
L 3022 2063 
z
" id="DejaVuSans-65" transform="scale(0.015625)"/>
       <path d="M 1159 525 
L 1159 -1331 
L 581 -1331 
L 581 3500 
L 1159 3500 
L 1159 2969 
Q 1341 3281 1617 3432 
Q 1894 3584 2278 3584 
Q 2916 3584 3314 3078 
Q 3713 2572 3713 1747 
Q 3713 922 3314 415 
Q 2916 -91 2278 -91 
Q 1894 -91 1617 61 
Q 1341 213 1159 525 
z
M 3116 1747 
Q 3116 2381 2855 2742 
Q 2594 3103 2138 3103 
Q 1681 3103 1420 2742 
Q 1159 2381 1159 1747 
Q 1159 1113 1420 752 
Q 1681 391 2138 391 
Q 2594 391 2855 752 
Q 3116 1113 3116 1747 
z
" id="DejaVuSans-70" transform="scale(0.015625)"/>
       <path d="M 1959 3097 
Q 1497 3097 1228 2736 
Q 959 2375 959 1747 
Q 959 1119 1226 758 
Q 1494 397 1959 397 
Q 2419 397 2687 759 
Q 2956 1122 2956 1747 
Q 2956 2369 2687 2733 
Q 2419 3097 1959 3097 
z
M 1959 3584 
Q 2709 3584 3137 3096 
Q 3566 2609 3566 1747 
Q 3566 888 3137 398 
Q 2709 -91 1959 -91 
Q 1206 -91 779 398 
Q 353 888 353 1747 
Q 353 2609 779 3096 
Q 1206 3584 1959 3584 
z
" id="DejaVuSans-6f" transform="scale(0.015625)"/>
       <path d="M 3122 3366 
L 3122 2828 
Q 2878 2963 2633 3030 
Q 2388 3097 2138 3097 
Q 1578 3097 1268 2742 
Q 959 2388 959 1747 
Q 959 1106 1268 751 
Q 1578 397 2138 397 
Q 2388 397 2633 464 
Q 2878 531 3122 666 
L 3122 134 
Q 2881 22 2623 -34 
Q 2366 -91 2075 -91 
Q 1284 -91 818 406 
Q 353 903 353 1747 
Q 353 2603 823 3093 
Q 1294 3584 2113 3584 
Q 2378 3584 2631 3529 
Q 2884 3475 3122 3366 
z
" id="DejaVuSans-63" transform="scale(0.015625)"/>
       <path d="M 3513 2113 
L 3513 0 
L 2938 0 
L 2938 2094 
Q 2938 2591 2744 2837 
Q 2550 3084 2163 3084 
Q 1697 3084 1428 2787 
Q 1159 2491 1159 1978 
L 1159 0 
L 581 0 
L 581 4863 
L 1159 4863 
L 1159 2956 
Q 1366 3272 1645 3428 
Q 1925 3584 2291 3584 
Q 2894 3584 3203 3211 
Q 3513 2838 3513 2113 
z
" id="DejaVuSans-68" transform="scale(0.015625)"/>
      </defs>
      <use xlink:href="#DejaVuSans-65"/>
      <use x="61.523438" xlink:href="#DejaVuSans-70"/>
      <use x="125" xlink:href="#DejaVuSans-6f"/>
      <use x="186.181641" xlink:href="#DejaVuSans-63"/>
      <use x="241.162109" xlink:href="#DejaVuSans-68"/>
     </g>
    </g>
   </g>
   <g id="matplotlib.axis_2">
    <g id="ytick_1">
     <g id="line2d_11">
      <path clip-path="url(#p7c078a9207)" d="M 30.103125 146.899219 
L 225.403125 146.899219 
" style="fill:none;stroke:#b0b0b0;stroke-linecap:square;stroke-width:0.8;"/>
     </g>
     <g id="line2d_12">
      <defs>
       <path d="M 0 0 
L -3.5 0 
" id="m1ee6404113" style="stroke:#000000;stroke-width:0.8;"/>
      </defs>
      <g>
       <use style="stroke:#000000;stroke-width:0.8;" x="30.103125" xlink:href="#m1ee6404113" y="146.899219"/>
      </g>
     </g>
     <g id="text_7">
      <!-- 0.0 -->
      <g transform="translate(7.2 150.698437)scale(0.1 -0.1)">
       <defs>
        <path d="M 684 794 
L 1344 794 
L 1344 0 
L 684 0 
L 684 794 
z
" id="DejaVuSans-2e" transform="scale(0.015625)"/>
       </defs>
       <use xlink:href="#DejaVuSans-30"/>
       <use x="63.623047" xlink:href="#DejaVuSans-2e"/>
       <use x="95.410156" xlink:href="#DejaVuSans-30"/>
      </g>
     </g>
    </g>
    <g id="ytick_2">
     <g id="line2d_13">
      <path clip-path="url(#p7c078a9207)" d="M 30.103125 119.719219 
L 225.403125 119.719219 
" style="fill:none;stroke:#b0b0b0;stroke-linecap:square;stroke-width:0.8;"/>
     </g>
     <g id="line2d_14">
      <g>
       <use style="stroke:#000000;stroke-width:0.8;" x="30.103125" xlink:href="#m1ee6404113" y="119.719219"/>
      </g>
     </g>
     <g id="text_8">
      <!-- 0.2 -->
      <g transform="translate(7.2 123.518437)scale(0.1 -0.1)">
       <use xlink:href="#DejaVuSans-30"/>
       <use x="63.623047" xlink:href="#DejaVuSans-2e"/>
       <use x="95.410156" xlink:href="#DejaVuSans-32"/>
      </g>
     </g>
    </g>
    <g id="ytick_3">
     <g id="line2d_15">
      <path clip-path="url(#p7c078a9207)" d="M 30.103125 92.539219 
L 225.403125 92.539219 
" style="fill:none;stroke:#b0b0b0;stroke-linecap:square;stroke-width:0.8;"/>
     </g>
     <g id="line2d_16">
      <g>
       <use style="stroke:#000000;stroke-width:0.8;" x="30.103125" xlink:href="#m1ee6404113" y="92.539219"/>
      </g>
     </g>
     <g id="text_9">
      <!-- 0.4 -->
      <g transform="translate(7.2 96.338437)scale(0.1 -0.1)">
       <defs>
        <path d="M 2419 4116 
L 825 1625 
L 2419 1625 
L 2419 4116 
z
M 2253 4666 
L 3047 4666 
L 3047 1625 
L 3713 1625 
L 3713 1100 
L 3047 1100 
L 3047 0 
L 2419 0 
L 2419 1100 
L 313 1100 
L 313 1709 
L 2253 4666 
z
" id="DejaVuSans-34" transform="scale(0.015625)"/>
       </defs>
       <use xlink:href="#DejaVuSans-30"/>
       <use x="63.623047" xlink:href="#DejaVuSans-2e"/>
       <use x="95.410156" xlink:href="#DejaVuSans-34"/>
      </g>
     </g>
    </g>
    <g id="ytick_4">
     <g id="line2d_17">
      <path clip-path="url(#p7c078a9207)" d="M 30.103125 65.359219 
L 225.403125 65.359219 
" style="fill:none;stroke:#b0b0b0;stroke-linecap:square;stroke-width:0.8;"/>
     </g>
     <g id="line2d_18">
      <g>
       <use style="stroke:#000000;stroke-width:0.8;" x="30.103125" xlink:href="#m1ee6404113" y="65.359219"/>
      </g>
     </g>
     <g id="text_10">
      <!-- 0.6 -->
      <g transform="translate(7.2 69.158437)scale(0.1 -0.1)">
       <defs>
        <path d="M 2113 2584 
Q 1688 2584 1439 2293 
Q 1191 2003 1191 1497 
Q 1191 994 1439 701 
Q 1688 409 2113 409 
Q 2538 409 2786 701 
Q 3034 994 3034 1497 
Q 3034 2003 2786 2293 
Q 2538 2584 2113 2584 
z
M 3366 4563 
L 3366 3988 
Q 3128 4100 2886 4159 
Q 2644 4219 2406 4219 
Q 1781 4219 1451 3797 
Q 1122 3375 1075 2522 
Q 1259 2794 1537 2939 
Q 1816 3084 2150 3084 
Q 2853 3084 3261 2657 
Q 3669 2231 3669 1497 
Q 3669 778 3244 343 
Q 2819 -91 2113 -91 
Q 1303 -91 875 529 
Q 447 1150 447 2328 
Q 447 3434 972 4092 
Q 1497 4750 2381 4750 
Q 2619 4750 2861 4703 
Q 3103 4656 3366 4563 
z
" id="DejaVuSans-36" transform="scale(0.015625)"/>
       </defs>
       <use xlink:href="#DejaVuSans-30"/>
       <use x="63.623047" xlink:href="#DejaVuSans-2e"/>
       <use x="95.410156" xlink:href="#DejaVuSans-36"/>
      </g>
     </g>
    </g>
    <g id="ytick_5">
     <g id="line2d_19">
      <path clip-path="url(#p7c078a9207)" d="M 30.103125 38.179219 
L 225.403125 38.179219 
" style="fill:none;stroke:#b0b0b0;stroke-linecap:square;stroke-width:0.8;"/>
     </g>
     <g id="line2d_20">
      <g>
       <use style="stroke:#000000;stroke-width:0.8;" x="30.103125" xlink:href="#m1ee6404113" y="38.179219"/>
      </g>
     </g>
     <g id="text_11">
      <!-- 0.8 -->
      <g transform="translate(7.2 41.978437)scale(0.1 -0.1)">
       <defs>
        <path d="M 2034 2216 
Q 1584 2216 1326 1975 
Q 1069 1734 1069 1313 
Q 1069 891 1326 650 
Q 1584 409 2034 409 
Q 2484 409 2743 651 
Q 3003 894 3003 1313 
Q 3003 1734 2745 1975 
Q 2488 2216 2034 2216 
z
M 1403 2484 
Q 997 2584 770 2862 
Q 544 3141 544 3541 
Q 544 4100 942 4425 
Q 1341 4750 2034 4750 
Q 2731 4750 3128 4425 
Q 3525 4100 3525 3541 
Q 3525 3141 3298 2862 
Q 3072 2584 2669 2484 
Q 3125 2378 3379 2068 
Q 3634 1759 3634 1313 
Q 3634 634 3220 271 
Q 2806 -91 2034 -91 
Q 1263 -91 848 271 
Q 434 634 434 1313 
Q 434 1759 690 2068 
Q 947 2378 1403 2484 
z
M 1172 3481 
Q 1172 3119 1398 2916 
Q 1625 2713 2034 2713 
Q 2441 2713 2670 2916 
Q 2900 3119 2900 3481 
Q 2900 3844 2670 4047 
Q 2441 4250 2034 4250 
Q 1625 4250 1398 4047 
Q 1172 3844 1172 3481 
z
" id="DejaVuSans-38" transform="scale(0.015625)"/>
       </defs>
       <use xlink:href="#DejaVuSans-30"/>
       <use x="63.623047" xlink:href="#DejaVuSans-2e"/>
       <use x="95.410156" xlink:href="#DejaVuSans-38"/>
      </g>
     </g>
    </g>
    <g id="ytick_6">
     <g id="line2d_21">
      <path clip-path="url(#p7c078a9207)" d="M 30.103125 10.999219 
L 225.403125 10.999219 
" style="fill:none;stroke:#b0b0b0;stroke-linecap:square;stroke-width:0.8;"/>
     </g>
     <g id="line2d_22">
      <g>
       <use style="stroke:#000000;stroke-width:0.8;" x="30.103125" xlink:href="#m1ee6404113" y="10.999219"/>
      </g>
     </g>
     <g id="text_12">
      <!-- 1.0 -->
      <g transform="translate(7.2 14.798437)scale(0.1 -0.1)">
       <use xlink:href="#DejaVuSans-31"/>
       <use x="63.623047" xlink:href="#DejaVuSans-2e"/>
       <use x="95.410156" xlink:href="#DejaVuSans-30"/>
      </g>
     </g>
    </g>
   </g>
   <g id="line2d_23">
    <path clip-path="url(#p7c078a9207)" d="M 23.566445 36.444153 
L 25.167264 31.071697 
L 26.768084 36.690954 
L 28.368904 40.61541 
L 29.969723 42.166596 
L 30.103125 42.568547 
L 31.703945 63.388039 
L 33.304764 62.446826 
L 34.905584 59.859313 
L 36.506404 56.278046 
L 38.107223 56.317713 
L 38.240625 56.625973 
L 39.841445 35.012506 
L 41.442264 44.672578 
L 43.043084 44.70417 
L 44.643904 49.720463 
L 46.244723 55.602808 
L 46.378125 55.567981 
L 49.579764 70.522484 
L 51.180584 66.534953 
L 52.781404 65.508128 
L 54.515625 66.386844 
L 56.116445 64.75129 
L 57.717264 59.576377 
L 59.318084 62.437784 
L 60.918904 62.572986 
L 62.519723 60.965612 
L 62.653125 61.029213 
L 64.253945 83.970233 
L 65.854764 62.606614 
L 67.455584 65.53551 
L 69.056404 66.108961 
L 70.657223 64.221242 
L 70.790625 64.859589 
L 72.391445 61.984323 
L 73.992264 67.956398 
L 75.593084 72.480774 
L 77.193904 70.558888 
L 78.794723 69.054602 
L 78.928125 69.771247 
L 80.528945 68.970931 
L 82.129764 72.698085 
L 83.730584 59.07301 
L 85.331404 64.252537 
L 87.065625 70.941582 
L 88.666445 75.807705 
L 90.267264 67.291959 
L 91.868084 69.929892 
L 93.468904 70.036107 
L 95.069723 69.828367 
L 95.203125 69.422772 
L 96.803945 79.063295 
L 98.404764 79.693823 
L 100.005584 69.261066 
L 101.606404 71.027263 
L 103.207223 71.490232 
L 103.340625 71.751321 
L 104.941445 80.013186 
L 106.542264 70.627813 
L 108.143084 77.220074 
L 109.743904 73.928125 
L 111.344723 69.095068 
L 111.478125 69.727203 
L 113.078945 70.943426 
L 114.679764 70.965559 
L 116.280584 65.830854 
L 117.881404 66.089503 
L 119.615625 58.357454 
L 121.216445 41.811194 
L 122.817264 59.869652 
L 124.418084 62.695112 
L 126.018904 62.392043 
L 127.619723 63.306857 
L 127.753125 63.599768 
L 129.353945 83.956296 
L 130.954764 75.238607 
L 132.555584 67.500891 
L 134.156404 70.400674 
L 135.757223 67.36644 
L 135.890625 68.31036 
L 137.491445 84.904332 
L 139.092264 75.447521 
L 140.693084 71.018536 
L 142.293904 70.114 
L 143.894723 69.452443 
L 144.028125 69.207507 
L 145.628945 68.181396 
L 147.229764 59.936399 
L 148.830584 62.878903 
L 150.431404 63.297214 
L 152.032223 68.285902 
L 152.165625 67.245224 
L 153.766445 58.280561 
L 155.367264 69.00758 
L 156.968084 61.259952 
L 158.568904 59.330918 
L 160.169723 62.349218 
L 160.303125 62.169573 
L 161.903945 41.854063 
L 163.504764 67.602886 
L 165.105584 67.018267 
L 166.706404 64.149648 
L 168.307223 67.275486 
L 168.440625 67.061717 
L 170.041445 79.810206 
L 171.642264 63.239771 
L 173.243084 67.31645 
L 174.843904 65.760109 
L 176.444723 65.512564 
L 176.578125 66.332214 
L 178.178945 66.293223 
L 179.779764 69.355144 
L 181.380584 63.551219 
L 182.981404 62.801592 
L 184.582223 62.577677 
L 184.715625 62.733754 
L 186.316445 89.008608 
L 187.917264 77.088148 
L 189.518084 71.110713 
L 191.118904 65.802549 
L 192.853125 68.720338 
L 194.453945 73.779464 
L 196.054764 77.658642 
L 197.655584 77.84722 
L 200.857223 73.071196 
L 200.990625 73.952565 
L 202.591445 60.992503 
L 204.192264 72.874609 
L 205.793084 66.274502 
L 207.393904 74.741057 
L 208.994723 75.47841 
L 209.128125 76.306425 
L 210.728945 71.687443 
L 212.329764 72.267343 
L 213.930584 74.754506 
L 215.531404 67.701443 
L 217.132223 67.613049 
L 217.265625 67.085696 
L 218.866445 82.26621 
L 220.467264 82.713309 
L 222.068084 76.180871 
L 223.668904 71.531417 
L 225.269723 74.56146 
L 225.403125 73.430761 
L 225.403125 73.430761 
" style="fill:none;stroke:#1f77b4;stroke-linecap:square;stroke-width:1.5;"/>
   </g>
   <g id="line2d_24">
    <path clip-path="url(#p7c078a9207)" d="M 23.566445 81.780469 
L 25.167264 81.780469 
L 28.368904 72.578906 
L 29.969723 70.455469 
L 30.103125 70.594711 
L 31.703945 61.961719 
L 34.905584 59.130469 
L 36.506404 62.669531 
L 38.107223 63.660469 
L 38.240625 63.911104 
L 39.841445 84.611719 
L 41.442264 76.117969 
L 43.043084 74.230469 
L 44.643904 70.455469 
L 46.244723 65.359219 
L 46.378125 65.582006 
L 47.978945 61.961719 
L 49.579764 53.467969 
L 51.180584 55.355469 
L 52.781404 56.299219 
L 54.382223 53.467969 
L 56.116445 59.130469 
L 59.318084 53.467969 
L 60.918904 54.175781 
L 62.519723 54.034219 
L 62.653125 54.442661 
L 64.253945 44.974219 
L 65.854764 56.299219 
L 67.455584 51.580469 
L 69.056404 51.344531 
L 70.657223 54.034219 
L 70.790625 53.885694 
L 72.391445 59.130469 
L 73.992264 54.883594 
L 75.593084 51.580469 
L 77.193904 52.052344 
L 78.794723 51.202969 
L 78.928125 50.543891 
L 80.528945 44.974219 
L 82.129764 43.558594 
L 83.730584 51.580469 
L 85.331404 52.760156 
L 86.932223 49.504219 
L 87.065625 48.872989 
L 88.666445 36.480469 
L 90.267264 43.558594 
L 91.868084 44.030469 
L 93.468904 46.389844 
L 95.069723 47.805469 
L 95.203125 48.316022 
L 96.803945 47.805469 
L 98.404764 49.221094 
L 100.005584 51.580469 
L 101.606404 49.221094 
L 103.340625 47.759055 
L 104.941445 36.480469 
L 106.542264 43.558594 
L 108.143084 39.311719 
L 109.743904 41.435156 
L 111.344723 46.672969 
L 111.478125 46.64512 
L 114.679764 54.883594 
L 116.280584 54.411719 
L 117.881404 54.175781 
L 119.482223 56.299219 
L 119.615625 56.67053 
L 121.216445 67.624219 
L 122.817264 52.052344 
L 124.418084 48.749219 
L 126.018904 50.636719 
L 127.753125 50.543891 
L 129.353945 42.142969 
L 130.954764 44.974219 
L 132.555584 49.692969 
L 134.156404 49.221094 
L 135.757223 51.202969 
L 135.890625 50.543891 
L 137.491445 33.649219 
L 139.092264 40.727344 
L 140.693084 44.030469 
L 142.293904 44.974219 
L 143.894723 45.540469 
L 144.028125 46.088153 
L 145.628945 61.961719 
L 147.229764 61.961719 
L 148.830584 61.017969 
L 150.431404 56.299219 
L 152.032223 53.467969 
L 152.165625 53.885694 
L 153.766445 50.636719 
L 155.367264 47.805469 
L 156.968084 52.524219 
L 158.568904 51.344531 
L 160.169723 51.769219 
L 160.303125 52.214793 
L 161.903945 61.961719 
L 163.504764 50.636719 
L 165.105584 48.749219 
L 166.706404 50.636719 
L 168.307223 48.937969 
L 168.440625 49.429956 
L 170.041445 42.142969 
L 171.642264 52.052344 
L 173.243084 49.692969 
L 174.843904 49.221094 
L 176.444723 48.371719 
L 176.578125 47.759055 
L 178.178945 56.299219 
L 179.779764 50.636719 
L 181.380584 52.524219 
L 182.981404 52.052344 
L 184.582223 52.901719 
L 184.715625 52.77176 
L 186.316445 36.480469 
L 187.917264 46.389844 
L 189.518084 52.524219 
L 191.118904 54.883594 
L 192.719723 53.467969 
L 192.853125 53.885694 
L 194.453945 47.805469 
L 196.054764 43.558594 
L 197.655584 44.974219 
L 199.256404 43.558594 
L 200.857223 46.672969 
L 200.990625 46.088153 
L 202.591445 53.467969 
L 204.192264 44.974219 
L 205.793084 49.692969 
L 207.393904 44.266406 
L 208.994723 43.275469 
L 209.128125 42.74635 
L 210.728945 47.805469 
L 212.329764 46.389844 
L 213.930584 44.030469 
L 215.531404 49.221094 
L 217.265625 48.316022 
L 218.866445 42.142969 
L 220.467264 40.727344 
L 222.068084 45.917969 
L 223.668904 49.928906 
L 225.403125 47.759055 
L 225.403125 47.759055 
" style="fill:none;stroke:#bf00bf;stroke-dasharray:5.55,2.4;stroke-dashoffset:0;stroke-width:1.5;"/>
   </g>
   <g id="line2d_25">
    <path clip-path="url(#p7c078a9207)" d="M 30.103125 40.310983 
L 38.240625 34.093336 
L 46.378125 24.322748 
L 54.515625 28.763925 
L 62.653125 24.322748 
L 70.790625 25.210983 
L 78.928125 34.093336 
L 87.065625 32.316866 
L 95.203125 18.105101 
L 103.340625 23.434513 
L 111.478125 25.210983 
L 119.615625 27.875689 
L 127.753125 21.658042 
L 135.890625 19.881572 
L 144.028125 21.658042 
L 152.165625 22.546278 
L 160.303125 23.434513 
L 168.440625 25.210983 
L 176.578125 19.881572 
L 184.715625 19.881572 
L 192.853125 33.205101 
L 200.990625 26.987454 
L 209.128125 19.881572 
L 217.265625 19.881572 
L 225.403125 17.216866 
" style="fill:none;stroke:#008000;stroke-dasharray:9.6,2.4,1.5,2.4;stroke-dashoffset:0;stroke-width:1.5;"/>
   </g>
   <g id="patch_3">
    <path d="M 30.103125 146.899219 
L 30.103125 10.999219 
" style="fill:none;stroke:#000000;stroke-linecap:square;stroke-linejoin:miter;stroke-width:0.8;"/>
   </g>
   <g id="patch_4">
    <path d="M 225.403125 146.899219 
L 225.403125 10.999219 
" style="fill:none;stroke:#000000;stroke-linecap:square;stroke-linejoin:miter;stroke-width:0.8;"/>
   </g>
   <g id="patch_5">
    <path d="M 30.103125 146.899219 
L 225.403125 146.899219 
" style="fill:none;stroke:#000000;stroke-linecap:square;stroke-linejoin:miter;stroke-width:0.8;"/>
   </g>
   <g id="patch_6">
    <path d="M 30.103125 10.999219 
L 225.403125 10.999219 
" style="fill:none;stroke:#000000;stroke-linecap:square;stroke-linejoin:miter;stroke-width:0.8;"/>
   </g>
   <g id="legend_1">
    <g id="patch_7">
     <path d="M 37.103125 141.899219 
L 114.871875 141.899219 
Q 116.871875 141.899219 116.871875 139.899219 
L 116.871875 96.864844 
Q 116.871875 94.864844 114.871875 94.864844 
L 37.103125 94.864844 
Q 35.103125 94.864844 35.103125 96.864844 
L 35.103125 139.899219 
Q 35.103125 141.899219 37.103125 141.899219 
z
" style="fill:#ffffff;opacity:0.8;stroke:#cccccc;stroke-linejoin:miter;"/>
    </g>
    <g id="line2d_26">
     <path d="M 39.103125 102.963281 
L 59.103125 102.963281 
" style="fill:none;stroke:#1f77b4;stroke-linecap:square;stroke-width:1.5;"/>
    </g>
    <g id="line2d_27"/>
    <g id="text_13">
     <!-- train loss -->
     <g transform="translate(67.103125 106.463281)scale(0.1 -0.1)">
      <defs>
       <path d="M 1172 4494 
L 1172 3500 
L 2356 3500 
L 2356 3053 
L 1172 3053 
L 1172 1153 
Q 1172 725 1289 603 
Q 1406 481 1766 481 
L 2356 481 
L 2356 0 
L 1766 0 
Q 1100 0 847 248 
Q 594 497 594 1153 
L 594 3053 
L 172 3053 
L 172 3500 
L 594 3500 
L 594 4494 
L 1172 4494 
z
" id="DejaVuSans-74" transform="scale(0.015625)"/>
       <path d="M 2631 2963 
Q 2534 3019 2420 3045 
Q 2306 3072 2169 3072 
Q 1681 3072 1420 2755 
Q 1159 2438 1159 1844 
L 1159 0 
L 581 0 
L 581 3500 
L 1159 3500 
L 1159 2956 
Q 1341 3275 1631 3429 
Q 1922 3584 2338 3584 
Q 2397 3584 2469 3576 
Q 2541 3569 2628 3553 
L 2631 2963 
z
" id="DejaVuSans-72" transform="scale(0.015625)"/>
       <path d="M 2194 1759 
Q 1497 1759 1228 1600 
Q 959 1441 959 1056 
Q 959 750 1161 570 
Q 1363 391 1709 391 
Q 2188 391 2477 730 
Q 2766 1069 2766 1631 
L 2766 1759 
L 2194 1759 
z
M 3341 1997 
L 3341 0 
L 2766 0 
L 2766 531 
Q 2569 213 2275 61 
Q 1981 -91 1556 -91 
Q 1019 -91 701 211 
Q 384 513 384 1019 
Q 384 1609 779 1909 
Q 1175 2209 1959 2209 
L 2766 2209 
L 2766 2266 
Q 2766 2663 2505 2880 
Q 2244 3097 1772 3097 
Q 1472 3097 1187 3025 
Q 903 2953 641 2809 
L 641 3341 
Q 956 3463 1253 3523 
Q 1550 3584 1831 3584 
Q 2591 3584 2966 3190 
Q 3341 2797 3341 1997 
z
" id="DejaVuSans-61" transform="scale(0.015625)"/>
       <path d="M 603 3500 
L 1178 3500 
L 1178 0 
L 603 0 
L 603 3500 
z
M 603 4863 
L 1178 4863 
L 1178 4134 
L 603 4134 
L 603 4863 
z
" id="DejaVuSans-69" transform="scale(0.015625)"/>
       <path d="M 3513 2113 
L 3513 0 
L 2938 0 
L 2938 2094 
Q 2938 2591 2744 2837 
Q 2550 3084 2163 3084 
Q 1697 3084 1428 2787 
Q 1159 2491 1159 1978 
L 1159 0 
L 581 0 
L 581 3500 
L 1159 3500 
L 1159 2956 
Q 1366 3272 1645 3428 
Q 1925 3584 2291 3584 
Q 2894 3584 3203 3211 
Q 3513 2838 3513 2113 
z
" id="DejaVuSans-6e" transform="scale(0.015625)"/>
       <path id="DejaVuSans-20" transform="scale(0.015625)"/>
       <path d="M 603 4863 
L 1178 4863 
L 1178 0 
L 603 0 
L 603 4863 
z
" id="DejaVuSans-6c" transform="scale(0.015625)"/>
       <path d="M 2834 3397 
L 2834 2853 
Q 2591 2978 2328 3040 
Q 2066 3103 1784 3103 
Q 1356 3103 1142 2972 
Q 928 2841 928 2578 
Q 928 2378 1081 2264 
Q 1234 2150 1697 2047 
L 1894 2003 
Q 2506 1872 2764 1633 
Q 3022 1394 3022 966 
Q 3022 478 2636 193 
Q 2250 -91 1575 -91 
Q 1294 -91 989 -36 
Q 684 19 347 128 
L 347 722 
Q 666 556 975 473 
Q 1284 391 1588 391 
Q 1994 391 2212 530 
Q 2431 669 2431 922 
Q 2431 1156 2273 1281 
Q 2116 1406 1581 1522 
L 1381 1569 
Q 847 1681 609 1914 
Q 372 2147 372 2553 
Q 372 3047 722 3315 
Q 1072 3584 1716 3584 
Q 2034 3584 2315 3537 
Q 2597 3491 2834 3397 
z
" id="DejaVuSans-73" transform="scale(0.015625)"/>
      </defs>
      <use xlink:href="#DejaVuSans-74"/>
      <use x="39.208984" xlink:href="#DejaVuSans-72"/>
      <use x="80.322266" xlink:href="#DejaVuSans-61"/>
      <use x="141.601562" xlink:href="#DejaVuSans-69"/>
      <use x="169.384766" xlink:href="#DejaVuSans-6e"/>
      <use x="232.763672" xlink:href="#DejaVuSans-20"/>
      <use x="264.550781" xlink:href="#DejaVuSans-6c"/>
      <use x="292.333984" xlink:href="#DejaVuSans-6f"/>
      <use x="353.515625" xlink:href="#DejaVuSans-73"/>
      <use x="405.615234" xlink:href="#DejaVuSans-73"/>
     </g>
    </g>
    <g id="line2d_28">
     <path d="M 39.103125 117.641406 
L 59.103125 117.641406 
" style="fill:none;stroke:#bf00bf;stroke-dasharray:5.55,2.4;stroke-dashoffset:0;stroke-width:1.5;"/>
    </g>
    <g id="line2d_29"/>
    <g id="text_14">
     <!-- train acc -->
     <g transform="translate(67.103125 121.141406)scale(0.1 -0.1)">
      <use xlink:href="#DejaVuSans-74"/>
      <use x="39.208984" xlink:href="#DejaVuSans-72"/>
      <use x="80.322266" xlink:href="#DejaVuSans-61"/>
      <use x="141.601562" xlink:href="#DejaVuSans-69"/>
      <use x="169.384766" xlink:href="#DejaVuSans-6e"/>
      <use x="232.763672" xlink:href="#DejaVuSans-20"/>
      <use x="264.550781" xlink:href="#DejaVuSans-61"/>
      <use x="325.830078" xlink:href="#DejaVuSans-63"/>
      <use x="380.810547" xlink:href="#DejaVuSans-63"/>
     </g>
    </g>
    <g id="line2d_30">
     <path d="M 39.103125 132.319531 
L 59.103125 132.319531 
" style="fill:none;stroke:#008000;stroke-dasharray:9.6,2.4,1.5,2.4;stroke-dashoffset:0;stroke-width:1.5;"/>
    </g>
    <g id="line2d_31"/>
    <g id="text_15">
     <!-- test acc -->
     <g transform="translate(67.103125 135.819531)scale(0.1 -0.1)">
      <use xlink:href="#DejaVuSans-74"/>
      <use x="39.208984" xlink:href="#DejaVuSans-65"/>
      <use x="100.732422" xlink:href="#DejaVuSans-73"/>
      <use x="152.832031" xlink:href="#DejaVuSans-74"/>
      <use x="192.041016" xlink:href="#DejaVuSans-20"/>
      <use x="223.828125" xlink:href="#DejaVuSans-61"/>
      <use x="285.107422" xlink:href="#DejaVuSans-63"/>
      <use x="340.087891" xlink:href="#DejaVuSans-63"/>
     </g>
    </g>
   </g>
  </g>
 </g>
 <defs>
  <clipPath id="p7c078a9207">
   <rect height="135.9" width="195.3" x="30.103125" y="10.999219"/>
  </clipPath>
 </defs>
</svg>
